<mxfile host="app.diagrams.net" modified="2022-10-25T08:05:44.332Z" agent="5.0 (Windows NT 10.0; Win64; x64) AppleWebKit/537.36 (KHTML, like Gecko) Chrome/106.0.0.0 Safari/537.36 Edg/106.0.1370.52" etag="liNf7zqzt8ZwkCujgP3w" version="20.5.1" type="github">
  <diagram id="88dN0RmUPOB5WUagGIN5" name="第 1 页">
    <mxGraphModel dx="1278" dy="579" grid="1" gridSize="10" guides="1" tooltips="1" connect="1" arrows="1" fold="1" page="1" pageScale="1" pageWidth="827" pageHeight="1169" math="0" shadow="0">
      <root>
        <mxCell id="0" />
        <mxCell id="1" parent="0" />
        <mxCell id="I87jQN-4KQreng3tcmTS-6" style="edgeStyle=orthogonalEdgeStyle;rounded=0;orthogonalLoop=1;jettySize=auto;html=1;entryX=0.5;entryY=0;entryDx=0;entryDy=0;" edge="1" parent="1" source="I87jQN-4KQreng3tcmTS-1" target="I87jQN-4KQreng3tcmTS-2">
          <mxGeometry relative="1" as="geometry">
            <Array as="points">
              <mxPoint x="400" y="180" />
              <mxPoint x="230" y="180" />
            </Array>
          </mxGeometry>
        </mxCell>
        <mxCell id="I87jQN-4KQreng3tcmTS-7" style="edgeStyle=orthogonalEdgeStyle;rounded=0;orthogonalLoop=1;jettySize=auto;html=1;entryX=0.5;entryY=0;entryDx=0;entryDy=0;" edge="1" parent="1" source="I87jQN-4KQreng3tcmTS-1" target="I87jQN-4KQreng3tcmTS-3">
          <mxGeometry relative="1" as="geometry" />
        </mxCell>
        <mxCell id="I87jQN-4KQreng3tcmTS-8" style="edgeStyle=orthogonalEdgeStyle;rounded=0;orthogonalLoop=1;jettySize=auto;html=1;entryX=0.5;entryY=0;entryDx=0;entryDy=0;" edge="1" parent="1" source="I87jQN-4KQreng3tcmTS-1" target="I87jQN-4KQreng3tcmTS-4">
          <mxGeometry relative="1" as="geometry">
            <Array as="points">
              <mxPoint x="400" y="180" />
              <mxPoint x="580" y="180" />
            </Array>
          </mxGeometry>
        </mxCell>
        <mxCell id="I87jQN-4KQreng3tcmTS-1" value="&lt;b&gt;CW-1 界面&lt;br&gt;UI&lt;/b&gt;" style="rounded=1;whiteSpace=wrap;html=1;" vertex="1" parent="1">
          <mxGeometry x="340" y="110" width="120" height="50" as="geometry" />
        </mxCell>
        <mxCell id="I87jQN-4KQreng3tcmTS-9" style="edgeStyle=orthogonalEdgeStyle;rounded=0;orthogonalLoop=1;jettySize=auto;html=1;" edge="1" parent="1" source="I87jQN-4KQreng3tcmTS-2" target="I87jQN-4KQreng3tcmTS-5">
          <mxGeometry relative="1" as="geometry">
            <Array as="points">
              <mxPoint x="230" y="280" />
              <mxPoint x="400" y="280" />
            </Array>
          </mxGeometry>
        </mxCell>
        <mxCell id="I87jQN-4KQreng3tcmTS-2" value="&lt;b&gt;CW-1 界面&lt;br&gt;UI&lt;/b&gt;" style="rounded=1;whiteSpace=wrap;html=1;" vertex="1" parent="1">
          <mxGeometry x="170" y="210" width="120" height="50" as="geometry" />
        </mxCell>
        <mxCell id="I87jQN-4KQreng3tcmTS-10" value="" style="edgeStyle=orthogonalEdgeStyle;rounded=0;orthogonalLoop=1;jettySize=auto;html=1;" edge="1" parent="1" source="I87jQN-4KQreng3tcmTS-3" target="I87jQN-4KQreng3tcmTS-5">
          <mxGeometry relative="1" as="geometry" />
        </mxCell>
        <mxCell id="I87jQN-4KQreng3tcmTS-3" value="&lt;b&gt;CW-1 界面&lt;br&gt;UI&lt;/b&gt;" style="rounded=1;whiteSpace=wrap;html=1;" vertex="1" parent="1">
          <mxGeometry x="340" y="210" width="120" height="50" as="geometry" />
        </mxCell>
        <mxCell id="I87jQN-4KQreng3tcmTS-12" style="edgeStyle=orthogonalEdgeStyle;rounded=0;orthogonalLoop=1;jettySize=auto;html=1;entryX=0.5;entryY=0;entryDx=0;entryDy=0;" edge="1" parent="1" source="I87jQN-4KQreng3tcmTS-4" target="I87jQN-4KQreng3tcmTS-5">
          <mxGeometry relative="1" as="geometry">
            <Array as="points">
              <mxPoint x="580" y="280" />
              <mxPoint x="400" y="280" />
            </Array>
          </mxGeometry>
        </mxCell>
        <mxCell id="I87jQN-4KQreng3tcmTS-4" value="&lt;b&gt;CW-1 界面&lt;br&gt;UI&lt;/b&gt;" style="rounded=1;whiteSpace=wrap;html=1;" vertex="1" parent="1">
          <mxGeometry x="520" y="210" width="120" height="50" as="geometry" />
        </mxCell>
        <mxCell id="I87jQN-4KQreng3tcmTS-5" value="&lt;b&gt;CW-1 界面&lt;br&gt;UI&lt;/b&gt;" style="rounded=1;whiteSpace=wrap;html=1;" vertex="1" parent="1">
          <mxGeometry x="340" y="320" width="120" height="50" as="geometry" />
        </mxCell>
      </root>
    </mxGraphModel>
  </diagram>
</mxfile>
